<?xml version="1.0" encoding="iso-8859-1"?>
<!-- Uploaded to: SVG Repo, www.svgrepo.com, Generator: SVG Repo Mixer Tools -->
<svg fill="#000000" height="800px" width="800px" version="1.1" id="Layer_1" xmlns="http://www.w3.org/2000/svg" xmlns:xlink="http://www.w3.org/1999/xlink" 
	 viewBox="0 0 488 488" xml:space="preserve">
<g transform="translate(0 -540.36)">
	<g>
		<g>
			<path d="M468.29,570.16L468.29,570.16l-213.802,0v-19.8c0-5.5-4.498-10-9.995-10s-9.995,4.5-9.995,10v19.8H19.995
				c-5.497,0-9.995,4.5-9.995,10v265.4c0,5.5,4.498,10,9.995,10h101.953l-15.193,48.1v0.1l-35.284,111.6
				c-1.699,5.3,1.299,10.9,6.497,12.5c1,0.3,1.999,0.5,2.999,0.5c4.198,0,8.196-2.7,9.496-7l32.985-104.7h231.094l32.985,104.7
				c1.299,4.3,5.298,7,9.496,7c1,0,1.999-0.2,2.999-0.5c5.298-1.7,8.196-7.3,6.497-12.5l-50.477-159.8H467.99
				c5.497,0,9.995-4.5,9.995-10v-265.4C478.286,574.66,473.788,570.16,468.29,570.16z M129.945,896.76l12.994-41.2h192.412
				l12.994,41.2H129.945z M458.295,835.56H342.648h-0.1H135.643h-0.1H29.991v-245.4h428.304V835.56z"/>
			<path d="M87.165,732.16c4.998,2.5,10.895,0.4,13.394-4.5l12.394-25h38.282l12.394,25c1.699,3.5,5.298,5.6,8.996,5.6
				c1.499,0,2.999-0.3,4.398-1c4.998-2.6,7.097-8.6,4.598-13.5l-40.481-81.8c-1.699-3.4-5.198-5.6-8.996-5.6s-7.297,2.2-8.996,5.6
				l-40.482,81.8C80.268,723.66,82.267,729.66,87.165,732.16z M132.144,663.86l9.196,18.7h-18.392L132.144,663.86z"/>
			<path d="M233.698,784.36h20.591c10.695,0,20.191-5.3,26.088-14.6c0.1-0.1,0.2-0.3,0.3-0.4c5.497-9.9,5.497-21.1,0.1-30.2h0
				c-1-2.2-2.399-4.2-3.898-6c1.299-1.4,2.499-3,3.498-4.7c5.697-9.2,5.797-20.6,0.4-30.6c-4.698-9.3-14.793-15.3-25.688-15.3
				h-21.39c-5.497,0-9.995,4.5-9.995,10v81.8C223.702,779.86,228.2,784.36,233.698,784.36z M243.893,702.56h11.295v0
				c3.299,0,6.597,1.9,7.896,4.4c0.1,0.1,0.1,0.3,0.2,0.4c1.999,3.7,2.099,7.5,0.3,10.5c-2.199,3.5-5.198,5.2-9.096,5.2h-10.595
				V702.56z M243.793,743.06h10.595c0.2,0,0.3,0,0.5,0c0.1,0,0.2,0,0.3,0c2.599,0,6.097,1.2,7.696,4.8c0.2,0.4,0.4,0.8,0.7,1.2
				c1.699,3,1.699,6.7-0.2,10.3h0c-2.199,3.3-5.198,5-8.996,5h-10.595V743.06z"/>
			<path d="M356.736,814.958c0,5.5,4.498,10,9.995,10h50.377c5.497,0,9.995-4.5,9.995-10s-4.498-10-9.995-10h-50.377
				C361.234,804.958,356.736,809.458,356.736,814.958z"/>
			<path d="M376.632,733.16h9.895c5.497,0,9.995-4.5,9.995-10s-4.498-10-9.995-10h-9.895c-10.995,0-21.69-5.2-26.688-13l-0.3-0.4
				c-5.198-7.4-5.198-16.5,0.2-24.6l0.1-0.1c5.098-8,15.093-13,25.988-13h10.695c5.497,0,9.995-4.5,9.995-10s-4.498-10-9.995-10
				h-10.695c-17.592,0-33.984,8.5-42.78,22.1c-9.895,14.9-9.895,32.9,0.1,47C341.948,724.56,358.94,733.16,376.632,733.16z"/>
		</g>
	</g>
</g>
</svg>